<!-- mistri wordmark (مستری), cut from Noto Nastaliq Urdu Bold to pure
     paths. Each stroke is addressable: #stroke-1 through #stroke-6,
     class .glyph, fill inherits currentColor. Edit, recolor, or animate
     per stroke. -->
<svg xmlns="http://www.w3.org/2000/svg" viewBox="-32 -827 2450 1325" role="img" aria-label="mistri">
  <g id="wordmark" fill="#f0f6fc">
    <path id="stroke-1" class="glyph" d="M250 341Q184 341 134.0 309.0Q84 277 56.0 219.5Q28 162 28 88Q28 34 42.5 -37.5Q57 -109 92.5 -194.0Q128 -279 191 -370L217 -355Q170 -273 145.5 -215.0Q121 -157 112.5 -114.0Q104 -71 104 -33Q104 21 126.5 65.5Q149 110 195.5 136.0Q242 162 312 162Q381 162 436.5 139.0Q492 116 531.0 81.5Q570 47 591.0 13.0Q612 -21 612 -42Q612 -62 593.5 -77.0Q575 -92 525 -112Q470 -134 470 -193Q470 -215 479.5 -249.0Q489 -283 505.5 -323.0Q522 -363 543.0 -402.5Q564 -442 586 -476Q630 -544 678.5 -588.0Q727 -632 773 -632Q818 -632 818 -604Q818 -597 813 -584L765 -474L756 -472Q748 -480 725 -480Q701 -480 672.0 -463.5Q643 -447 616.0 -421.0Q589 -395 572.0 -366.5Q555 -338 555 -315Q555 -272 625 -245Q655 -234 668.5 -217.5Q682 -201 682 -169Q682 -129 667.5 -70.0Q653 -11 623.0 54.0Q593 119 548 177Q487 256 409.5 298.5Q332 341 250 341Z"/>
    <path id="stroke-2" class="glyph" d="M686 438 662 411Q760 325 842.0 211.0Q924 97 1007 -39Q1027 -71 1048.0 -101.0Q1069 -131 1089 -157Q1137 -219 1177.5 -251.0Q1218 -283 1254.5 -294.0Q1291 -305 1327 -305Q1341 -305 1353.5 -298.5Q1366 -292 1366 -275Q1366 -243 1348.5 -213.5Q1331 -184 1303.0 -165.5Q1275 -147 1242 -147Q1193 -147 1156.5 -121.5Q1120 -96 1084.0 -47.5Q1048 1 1000 70Q926 177 852.0 271.0Q778 365 686 438Z"/>
    <path id="stroke-3" class="glyph" d="M1172 -570Q1150 -592 1129.5 -610.0Q1109 -628 1089 -644V-653Q1099 -667 1116.5 -687.5Q1134 -708 1151.0 -726.0Q1168 -744 1176 -749H1185Q1209 -734 1226.5 -720.5Q1244 -707 1253 -693Q1264 -707 1278.0 -722.5Q1292 -738 1305.0 -750.5Q1318 -763 1324 -767H1332Q1372 -742 1391.5 -722.5Q1411 -703 1411 -683Q1411 -645 1331 -588H1322Q1305 -605 1289.0 -619.5Q1273 -634 1259 -646Q1243 -614 1181 -570Z"/>
    <path id="stroke-4" class="glyph" d="M1332 -141Q1322 -141 1302.0 -142.5Q1282 -144 1264.0 -145.0Q1246 -146 1242 -146Q1209 -146 1209 -178Q1209 -211 1225.5 -239.5Q1242 -268 1268.5 -286.0Q1295 -304 1326 -304Q1356 -304 1373.5 -301.5Q1391 -299 1416 -299Q1430 -299 1439.5 -292.0Q1449 -285 1449 -267Q1449 -234 1432.5 -205.5Q1416 -177 1389.5 -159.0Q1363 -141 1332 -141Z"/>
    <path id="stroke-5" class="glyph" d="M1333 -140Q1298 -140 1298 -172Q1298 -204 1314.0 -232.5Q1330 -261 1357.0 -279.5Q1384 -298 1417 -298Q1450 -298 1476.0 -309.5Q1502 -321 1533 -364Q1552 -389 1577 -389Q1593 -389 1613 -379Q1635 -369 1654 -369Q1717 -369 1742 -435L1759 -436Q1779 -410 1812 -410Q1857 -410 1870 -468L1891 -469Q1894 -465 1894 -458Q1907 -447 1927 -447Q1941 -447 1948.5 -435.0Q1956 -423 1956 -408Q1956 -377 1936.5 -358.5Q1917 -340 1894 -340Q1884 -340 1875.0 -343.5Q1866 -347 1858 -353Q1845 -333 1825.0 -319.0Q1805 -305 1779 -305Q1748 -305 1725 -327Q1678 -262 1623 -262Q1595 -262 1574 -274Q1552 -286 1544 -286Q1534 -286 1522.5 -271.5Q1511 -257 1497 -237Q1486 -221 1474.5 -207.0Q1463 -193 1450 -182Q1423 -160 1398.0 -150.0Q1373 -140 1333 -140Z"/>
    <path id="stroke-6" class="glyph" d="M1893 -340Q1883 -340 1873.5 -350.5Q1864 -361 1864 -379Q1864 -410 1883.5 -428.0Q1903 -446 1926 -446Q1964 -446 2014.5 -468.0Q2065 -490 2108 -549Q2138 -589 2156.0 -611.0Q2174 -633 2188.5 -643.0Q2203 -653 2220 -657Q2227 -671 2239.0 -687.5Q2251 -704 2263.0 -718.5Q2275 -733 2282 -739H2295Q2305 -715 2314.5 -696.0Q2324 -677 2334 -664Q2348 -647 2353.0 -636.5Q2358 -626 2358 -615Q2358 -593 2342.5 -565.0Q2327 -537 2304.5 -516.5Q2282 -496 2260 -496Q2253 -496 2246.5 -496.5Q2240 -497 2234 -500Q2212 -511 2193.0 -516.5Q2174 -522 2159 -522Q2142 -522 2114.0 -496.0Q2086 -470 2054 -437Q2009 -391 1974.5 -365.5Q1940 -340 1893 -340Z"/>
  </g>
</svg>
